<svg width="79" height="94" viewBox="0 0 79 94" fill="none" xmlns="http://www.w3.org/2000/svg">
<path d="M54.552 92L44.824 64.992L29.976 83.808C27.2453 87.2213 24.4293 89.696 21.528 91.232C18.6267 92.768 15.8533 93.536 13.208 93.536C10.904 93.536 8.77067 92.9813 6.808 91.872C4.93067 90.7627 3.48 89.2267 2.456 87.264C1.432 85.216 0.92 82.784 0.92 79.968C0.92 77.152 1.60267 74.0373 2.968 70.624L26.264 13.664L31.384 0.735992L64.152 92H54.552ZM44.312 63.584L26.904 15.456L6.808 64.608C5.528 67.68 4.93067 70.5387 5.016 73.184C5.10133 75.8293 5.656 78.176 6.68 80.224C7.78933 82.1867 9.28267 83.7227 11.16 84.832C13.0373 85.9413 15.128 86.496 17.432 86.496C19.992 86.496 22.68 85.7707 25.496 84.32C28.3973 82.784 31.2133 80.2667 33.944 76.768L44.312 63.584ZM72.689 82.016C74.3103 82.016 75.633 82.5707 76.657 83.68C77.7663 84.7893 78.321 86.1547 78.321 87.776C78.321 89.312 77.7663 90.6347 76.657 91.744C75.633 92.8533 74.3103 93.408 72.689 93.408C71.153 93.408 69.8303 92.8533 68.721 91.744C67.6117 90.6347 67.057 89.312 67.057 87.776C67.057 86.1547 67.6117 84.7893 68.721 83.68C69.8303 82.5707 71.153 82.016 72.689 82.016Z" fill="black"/>
</svg>
